<svg aria-hidden="true" style="position: absolute; width: 0; height: 0; overflow: hidden;" version="1.1" xmlns="http://www.w3.org/2000/svg" xmlns:xlink="http://www.w3.org/1999/xlink">
<defs>
<symbol id="fullStar" viewBox="0 0 30 32">
<path d="M22.728 28.312c-0.194 0.001-0.384-0.060-0.542-0.173l-7.42-5.379-7.42 5.379c-0.159 0.115-0.349 0.177-0.545 0.176s-0.386-0.064-0.544-0.18c-0.158-0.116-0.274-0.279-0.333-0.466s-0.057-0.387 0.006-0.573l2.894-8.571-7.5-5.143c-0.162-0.111-0.285-0.272-0.35-0.458s-0.069-0.388-0.011-0.576c0.058-0.188 0.175-0.353 0.333-0.47s0.35-0.181 0.547-0.181h9.253l2.792-8.593c0.060-0.186 0.178-0.347 0.335-0.462s0.348-0.176 0.543-0.176c0.195 0 0.385 0.062 0.543 0.176s0.275 0.276 0.335 0.462l2.792 8.596h9.253c0.197-0 0.389 0.063 0.548 0.18s0.276 0.282 0.334 0.47c0.058 0.188 0.055 0.39-0.010 0.577s-0.188 0.347-0.35 0.458l-7.503 5.14 2.892 8.569c0.047 0.139 0.060 0.287 0.038 0.431s-0.077 0.283-0.163 0.401c-0.085 0.119-0.198 0.216-0.328 0.283s-0.274 0.102-0.421 0.102z"></path>
</symbol>
<symbol id="emptyStar" viewBox="0 0 30 32">
<path stroke-linejoin="round" stroke-linecap="butt" stroke-miterlimit="4" stroke-width="2.4615" d="M27.692 12.62h-9.923l-3-9.231-3 9.231h-9.923l8.077 5.538-3.115 9.231 7.962-5.769 7.962 5.769-3.115-9.231 8.077-5.538z"></path>
</symbol>
<symbol id="halfStar" viewBox="0 0 30 32">
<path fill="none" stroke="#000" style="stroke: var(--color1, #000)" stroke-linejoin="round" stroke-linecap="butt" stroke-miterlimit="4" stroke-width="2.4615" d="M27.692 12.62h-9.923l-3-9.231-3 9.231h-9.923l8.077 5.538-3.115 9.231 7.962-5.769 7.962 5.769-3.115-9.231 8.077-5.538z"></path>
<path d="M14.769 3.389v18.231l-7.962 5.769 3.115-9.231-8.077-5.538h9.923l3-9.231z"></path>
</symbol>
</defs>
</svg>
